<svg viewBox="0 0 1067 1024" xmlns='http://www.w3.org/2000/svg'>
    <path d="M259.189144 1023.316282a88.604596 88.604596 0 0 1-52.721114-17.389687 89.708703 89.708703 0 0 1-35.883481-88.052542l38.367722-222.477583A69.558748 69.558748 0 0 0 189.078343 634.946605L27.602678 476.507235a89.98473 89.98473 0 0 1 49.68482-153.470889l223.58169-32.571159a69.006694 69.006694 0 0 0 52.169061-37.539642l99.645667-202.603655a89.708703 89.708703 0 0 1 161.199638 0l99.921693 202.603655a69.006694 69.006694 0 0 0 52.169061 37.539642l223.581691 32.571159a89.98473 89.98473 0 0 1 49.68482 153.470889L877.489127 634.946605a69.558748 69.558748 0 0 0-19.873928 61.277945l38.367722 222.477583a89.98473 89.98473 0 0 1-130.560666 94.953211l-200.119414-105.166202a69.006694 69.006694 0 0 0-64.038212 0l-200.119414 105.166202a90.81281 90.81281 0 0 1-41.956071 9.660938zM533.283735 82.89305a6.348616 6.348616 0 0 0-6.348616 4.140401l-99.921694 202.327628a151.814728 151.814728 0 0 1-114.551112 82.808034l-223.305664 32.847186a7.176696 7.176696 0 0 0-4.140401 12.145179l161.751691 157.887316a150.710621 150.710621 0 0 1 43.612231 134.149014l-38.091695 222.75361a6.072589 6.072589 0 0 0 2.760268 6.90067 6.624643 6.624643 0 0 0 7.728749 0l199.843388-104.890176a150.710621 150.710621 0 0 1 141.32571 0L803.789977 938.576061a6.624643 6.624643 0 0 0 7.72875 0 6.072589 6.072589 0 0 0 2.760268-6.90067l-38.091696-222.753609a150.710621 150.710621 0 0 1 43.612231-134.149014l161.751692-157.887317a6.348616 6.348616 0 0 0 1.932187-7.176696 6.900669 6.900669 0 0 0-5.796562-4.968482l-223.58169-32.57116a150.986647 150.986647 0 0 1-114.275086-82.808034l-100.19772-202.327628a6.624643 6.624643 0 0 0-6.348616-4.140401z" fill="#060404"></path><path d="M285.411688 579.74125a41.404017 41.404017 0 0 1-41.404016-41.404017 165.616067 165.616067 0 0 1 165.616066-165.616067 41.404017 41.404017 0 0 1 0 82.808034 82.808033 82.808033 0 0 0-82.808033 82.808033 41.404017 41.404017 0 0 1-41.404017 41.404017z" fill="#2DAF62">
    </path>
</svg>